<svg version="1.1" xmlns="http://www.w3.org/2000/svg" xmlns:xlink="http://www.w3.org/1999/xlink" preserveAspectRatio="xMidYMid meet" viewBox="111.47946137554854 158.6883774401727 429.6005386244516 324.39716287131324" width="42" height="31.62"><defs><path d="M290.4 376.64C301.28 384 307.84 396.32 307.84 409.44C307.84 412.54 307.84 437.38 307.84 440.48C307.84 472.32 272.32 491.04 246.08 473.12C234.45 465.2 141.39 401.84 129.76 393.92C118.88 386.56 112.48 374.24 112.48 361.28C112.48 358.27 112.48 334.21 112.48 331.2C112.32 299.36 147.84 280.64 174.08 298.24C197.34 313.92 278.77 368.8 290.4 376.64Z" id="c4XFPjxXwP"></path><path d="M290.4 263.2C301.28 255.84 307.84 243.52 307.84 230.4C307.84 227.3 307.84 202.46 307.84 199.36C307.84 167.52 272.32 148.8 246.08 166.72C234.45 174.64 141.39 238 129.76 245.92C118.88 253.28 112.48 265.6 112.48 278.56C112.48 282.06 112.48 299.55 112.48 331.04C112.48 349.09 112.48 359.11 112.48 361.12C112.48 374.24 118.88 386.4 129.76 393.76C134.27 396.86 170.37 421.7 174.88 424.8C174.88 424.8 149.6 401.6 149.6 376.48C149.6 351.36 174.08 341.6 174.08 341.6C197.34 325.92 278.77 271.04 290.4 263.2Z" id="a3NmGaWuUQ"></path><path d="M290.4 376.64C301.28 384 307.84 396.32 307.84 409.44C307.84 412.54 307.84 437.38 307.84 440.48C307.84 472.32 272.32 491.04 246.08 473.12C234.45 465.2 141.39 401.84 129.76 393.92C118.88 386.56 112.48 374.24 112.48 361.28C112.48 358.27 112.48 334.21 112.48 331.2C112.32 299.36 147.84 280.64 174.08 298.24C197.34 313.92 278.77 368.8 290.4 376.64Z" id="d2tTtefRN"></path><path d="M290.4 263.2C301.28 255.84 307.84 243.52 307.84 230.4C307.84 227.3 307.84 202.46 307.84 199.36C307.84 167.52 272.32 148.8 246.08 166.72C234.45 174.64 141.39 238 129.76 245.92C118.88 253.28 112.48 265.6 112.48 278.56C112.48 282.06 112.48 299.55 112.48 331.04C112.48 349.09 112.48 359.11 112.48 361.12C112.48 374.24 118.88 386.4 129.76 393.76C134.27 396.86 170.37 421.7 174.88 424.8C174.88 424.8 149.6 401.6 149.6 376.48C149.6 351.36 174.08 341.6 174.08 341.6C197.34 325.92 278.77 271.04 290.4 263.2Z" id="b5dqYeYOF"></path><path d="M360.64 262.72C349.76 255.36 343.2 243.2 343.2 230.08C343.2 226.99 343.2 202.29 343.2 199.2C343.2 167.52 378.56 148.8 404.8 166.56C416.4 174.45 509.2 237.55 520.8 245.44C531.52 252.8 538.08 264.96 538.08 278.08C538.08 281.09 538.08 305.15 538.08 308.16C538.08 339.84 502.88 358.56 476.64 340.8C453.44 325.18 372.24 270.53 360.64 262.72Z" id="a2mstUmIli"></path><path d="M360.64 375.84C349.76 383.2 343.2 395.36 343.2 408.48C343.2 411.57 343.2 436.27 343.2 439.36C343.2 471.04 378.56 489.76 404.8 472C416.4 464.11 509.2 401.01 520.8 393.12C531.52 385.76 538.08 373.6 538.08 360.48C538.08 356.99 538.08 339.55 538.08 308.16C538.08 290.11 538.08 280.09 538.08 278.08C538.08 265.12 531.68 252.8 520.8 245.44C516.3 242.35 480.34 217.65 475.84 214.56C475.84 214.56 500.96 237.6 500.96 262.72C500.96 287.84 476.64 297.76 476.64 297.76C453.44 313.38 372.24 368.03 360.64 375.84Z" id="a16AO9yKmU"></path><path d="M360.64 262.72C349.76 255.36 343.2 243.2 343.2 230.08C343.2 226.99 343.2 202.29 343.2 199.2C343.2 167.52 378.56 148.8 404.8 166.56C416.4 174.45 509.2 237.55 520.8 245.44C531.52 252.8 538.08 264.96 538.08 278.08C538.08 281.09 538.08 305.15 538.08 308.16C538.08 339.84 502.88 358.56 476.64 340.8C453.44 325.18 372.24 270.53 360.64 262.72Z" id="b8dYEw9iq"></path><path d="M360.64 375.84C349.76 383.2 343.2 395.36 343.2 408.48C343.2 411.57 343.2 436.27 343.2 439.36C343.2 471.04 378.56 489.76 404.8 472C416.4 464.11 509.2 401.01 520.8 393.12C531.52 385.76 538.08 373.6 538.08 360.48C538.08 356.99 538.08 339.55 538.08 308.16C538.08 290.11 538.08 280.09 538.08 278.08C538.08 265.12 531.68 252.8 520.8 245.44C516.3 242.35 480.34 217.65 475.84 214.56C475.84 214.56 500.96 237.6 500.96 262.72C500.96 287.84 476.64 297.76 476.64 297.76C453.44 313.38 372.24 368.03 360.64 375.84Z" id="a6rTcKaLV"></path></defs><g><g><use xlink:href="#c4XFPjxXwP" opacity="1" fill="#3599a5" fill-opacity="1"></use><g><use xlink:href="#c4XFPjxXwP" opacity="1" fill-opacity="0" stroke="#000000" stroke-width="1" stroke-opacity="0"></use></g></g><g><use xlink:href="#a3NmGaWuUQ" opacity="1" fill="#6fcdd6" fill-opacity="1"></use><g><use xlink:href="#a3NmGaWuUQ" opacity="1" fill-opacity="0" stroke="#000000" stroke-width="1" stroke-opacity="0"></use></g></g><g><use xlink:href="#d2tTtefRN" opacity="1" fill="#2574a9" fill-opacity="1"></use><g><use xlink:href="#d2tTtefRN" opacity="1" fill-opacity="0" stroke="#000000" stroke-width="1" stroke-opacity="0"></use></g></g><g><use xlink:href="#b5dqYeYOF" opacity="1" fill="#16aedb" fill-opacity="1"></use><g><use xlink:href="#b5dqYeYOF" opacity="1" fill-opacity="0" stroke="#000000" stroke-width="1" stroke-opacity="0"></use></g></g><g><use xlink:href="#a2mstUmIli" opacity="1" fill="#3599a5" fill-opacity="1"></use><g><use xlink:href="#a2mstUmIli" opacity="1" fill-opacity="0" stroke="#000000" stroke-width="1" stroke-opacity="0"></use></g></g><g><use xlink:href="#a16AO9yKmU" opacity="1" fill="#6fcdd6" fill-opacity="1"></use><g><use xlink:href="#a16AO9yKmU" opacity="1" fill-opacity="0" stroke="#000000" stroke-width="1" stroke-opacity="0"></use></g></g><g><use xlink:href="#b8dYEw9iq" opacity="1" fill="#2574a9" fill-opacity="1"></use><g><use xlink:href="#b8dYEw9iq" opacity="1" fill-opacity="0" stroke="#000000" stroke-width="1" stroke-opacity="0"></use></g></g><g><use xlink:href="#a6rTcKaLV" opacity="1" fill="#16aedb" fill-opacity="1"></use><g><use xlink:href="#a6rTcKaLV" opacity="1" fill-opacity="0" stroke="#000000" stroke-width="1" stroke-opacity="0"></use></g></g></g></svg>
