<?xml version="1.0" standalone="no"?>
<!DOCTYPE svg PUBLIC "-//W3C//DTD SVG 20010904//EN"
 "http://www.w3.org/TR/2001/REC-SVG-20010904/DTD/svg10.dtd">
<svg version="1.0" xmlns="http://www.w3.org/2000/svg"
 width="282.000000pt" height="282.000000pt" viewBox="0 0 282.000000 282.000000"
 preserveAspectRatio="xMidYMid meet">
<metadata>
Created by potrace 1.11, written by Peter Selinger 2001-2013
</metadata>
<g transform="translate(0.000000,282.000000) scale(0.100000,-0.100000)"
fill="#000000" stroke="none">
<path d="M1010 2405 c-46 -9 -93 -36 -273 -158 -311 -211 -311 -211 -317 -217
-3 -3 -57 -40 -120 -82 -63 -43 -127 -89 -143 -103 -47 -45 -69 -101 -72 -186
-1 -42 -5 -82 -9 -88 -4 -6 -3 -11 1 -11 5 0 9 -9 9 -20 0 -11 -4 -20 -9 -20
-4 0 -5 -6 0 -12 11 -19 10 -112 -2 -120 -6 -5 -7 -11 0 -15 11 -9 13 -152 2
-169 -3 -6 -3 -14 1 -18 3 -4 7 -24 7 -44 0 -20 4 -43 8 -50 5 -6 5 -17 2 -22
-3 -5 -1 -10 5 -10 6 0 8 -5 5 -10 -13 -21 108 -121 325 -267 124 -83 286
-193 360 -244 74 -50 153 -100 175 -110 111 -51 254 2 315 116 26 49 27 55 26
210 -2 225 -8 234 -204 368 -63 42 -118 77 -123 77 -5 0 -9 3 -9 8 0 4 -16 16
-35 26 -19 11 -35 23 -35 28 0 4 -6 8 -13 8 -8 0 -22 9 -32 20 -10 11 -22 20
-27 20 -6 0 -20 8 -33 18 -12 9 -33 24 -45 32 -13 8 -34 24 -47 35 l-24 20
223 150 c296 198 336 228 362 267 36 55 44 99 42 255 -2 121 -5 154 -20 182
-59 111 -158 160 -276 136z"/>
<path d="M1739 2409 c-25 -4 -61 -15 -80 -24 -43 -23 -99 -78 -99 -99 0 -9 -4
-16 -9 -16 -15 0 -24 -78 -24 -207 0 -117 16 -213 34 -213 5 0 9 -6 9 -13 0
-23 40 -53 311 -235 144 -97 264 -183 267 -189 2 -7 -3 -13 -11 -13 -9 0 -17
-3 -19 -7 -2 -7 -372 -259 -475 -325 -37 -24 -69 -61 -94 -107 -18 -35 -21
-59 -22 -188 0 -141 9 -206 35 -237 4 -6 17 -23 28 -38 50 -66 189 -99 273
-65 19 9 113 68 209 134 95 65 207 141 248 168 41 28 77 52 80 55 3 3 57 40
121 83 107 71 201 147 183 147 -4 0 1 7 12 15 10 8 16 15 12 15 -4 0 -2 12 4
28 13 32 19 630 6 638 -5 3 -6 10 -2 15 7 12 -27 78 -58 110 -23 25 -124 97
-308 219 -52 35 -97 66 -100 69 -3 3 -79 55 -170 116 -91 60 -167 112 -170
116 -10 13 -69 39 -106 47 -22 4 -60 5 -85 1z"/>
</g>
</svg>
